Coordinates
version=1
nRows=17
nColumns=33
inDegrees=yes

Units are S.I. units (second, meters, Newtons, ...)
Angles are in degrees.

endheader
time	ground_thorax_rot_x	ground_thorax_rot_y	ground_thorax_rot_z	ground_thorax_tx	ground_thorax_ty	ground_thorax_tz	clav_prot_r	clav_elev_r	scapula_abduction_r	scapula_elevation_r	scapula_upward_rot_r	scapula_winging_r	shoulder_elv_r	plane_of_elev_r	axial_rot_r	elbow_flexion_r	pro_sup_r	wrist_flex_r	wrist_dev_r	clav_prot_l	clav_elev_l	scapula_abduction_l	scapula_elevation_l	scapula_upward_rot_l	scapula_winging_l	shoulder_elv_l	plane_of_elev_l	axial_rot_l	elbow_flexion_l	pro_sup_l	wrist_flex_l	wrist_dev_l
      4.46000000	     37.35761530	     16.82421966	     20.23262629	   -279.63844242	    827.01583699	      8.81417681	      3.01467090	     43.08072637	     44.31517478	     45.00000000	      6.05836584	   2406.99019372	  -3533.14035118	     18.72128064	   -179.99999979	   1092.90964453	   -146.97180282	     19.57205552	     11.83429275	      8.71099929	    -45.00000000	    -35.47344214	     45.00000000	    -45.00000000	  -2777.80966818	   -452.27069755	    141.28036332	    137.95710577	   2897.94306165	     96.18848541	     -1.16757188	    -12.99889598
      4.47000000	     37.34173843	     16.88499453	     20.38635497	   -279.39551374	    826.75890437	      8.75109269	      2.55270610	     43.16964806	     43.95909497	     45.00000000	      5.89966970	   2407.06598927	  -3533.39714525	     19.03524910	   -179.99999979	   1093.05463891	   -147.65964895	     19.41310817	     11.88797403	      8.58655332	    -45.00000000	    -35.34439448	     45.00000000	    -45.00000000	  -2777.79255225	   -452.26975131	    141.19659702	    138.21583725	   2897.87330245	     95.80127964	     -1.37390528	    -13.12021520
      4.48000000	     37.29940569	     16.92554633	     20.48858970	   -279.02737077	    826.53320036	      8.67803947	      2.75281098	     43.04861716	     44.02054730	     45.00000000	      5.85069083	   2407.23571481	  -3533.31325350	     18.74126496	   -179.99999979	   1092.93425379	   -148.36146104	     19.56308756	     11.99901916	      8.74248919	    -45.00000000	    -35.57223925	     45.00000000	    -45.00000000	  -2777.79239478	   -452.38013599	    141.23422434	    138.43326159	   2897.92727625	     95.37019989	     -1.20817427	    -13.01504915
      4.49000000	     37.27479074	     16.93081365	     20.55952310	   -278.55781220	    826.33454965	      8.59610540	      2.64395815	     43.19785754	     43.78598810	     45.00000000	      5.87652142	   2407.13334244	  -3533.58140917	     19.08331937	   -179.99999979	   1093.06005349	   -148.93380724	     19.41584265	     12.06993603	      8.72505774	    -45.00000000	    -35.47081786	     45.00000000	    -45.00000000	  -2777.83483526	   -452.28950309	    141.13564171	    138.65037410	   2897.88374073	     94.99744700	     -1.34894513	    -13.09958755
      4.50000000	     37.12938827	     17.16077492	     20.76853017	   -278.00632567	    826.15469477	      8.50694277	      2.52440398	     43.02366529	     43.32502198	     45.00000000	      5.90338247	   2407.67546801	  -3533.48950641	     18.78558006	   -179.99999979	   1092.90201709	   -149.48999681	     19.56853235	     12.14830944	      8.80075123	    -45.00000000	    -35.77259187	     45.00000000	    -45.00000000	  -2777.83980616	   -452.37054457	    141.14544343	    138.97550402	   2897.87667083	     94.64960169	     -1.23420071	    -12.98286543
      4.51000000	     37.23753029	     16.95825648	     20.80551201	   -277.38193525	    825.98641243	      8.41153224	      2.48622817	     43.14809374	     43.96466144	     45.00000000	      5.83896088	   2407.18631101	  -3533.62374326	     18.82475746	   -179.99999979	   1092.96685255	   -150.02785335	     19.48309533	     12.23497398	      8.86595969	    -45.00000000	    -35.56467937	     45.00000000	    -45.00000000	  -2777.82639065	   -452.43668006	    141.08884204	    139.13208047	   2897.87288807	     94.24852654	     -1.33426258	    -13.08647813
      4.52000000	     37.17323683	     17.02818562	     20.90313099	   -276.70809106	    825.83209052	      8.31366435	      2.36528635	     43.13423885	     43.94689955	     45.00000000	      5.99146529	   2407.17942009	  -3533.62438876	     18.72260767	   -179.99999979	   1092.86335751	   -150.58960124	     19.52476182	     12.33339488	      8.94674553	    -45.00000000	    -35.52840987	     45.00000000	    -45.00000000	  -2777.80686624	   -452.28376198	    140.93397534	    139.44936870	   2897.75846116	     93.86989960	     -1.31354989	    -13.06517109
      4.53000000	     37.16451113	     17.10729748	     21.04770976	   -275.99199677	    825.69407605	      8.21522203	      2.16442716	     43.14509756	     43.66680504	     45.00000000	      6.15150401	   2407.59839193	  -3533.61139395	     18.60159229	   -179.99999979	   1092.83147691	   -151.01141644	     19.50814414	     12.35639218	      9.01394144	    -45.00000000	    -35.71440944	     45.00000000	    -45.00000000	  -2777.81255288	   -452.44366628	    140.95373339	    139.78321865	   2897.82229031	     93.58810013	     -1.33927448	    -13.03652512
      4.54000000	     37.14601944	     17.04121978	     21.07954924	   -275.22617718	    825.57625731	      8.11679767	      2.27266256	     43.11197573	     44.00455709	     45.00000000	      6.34765186	   2407.10150358	  -3533.67396520	     18.75589666	   -179.99999979	   1092.81276316	   -151.38883624	     19.51621299	     12.47031020	      8.98333523	    -45.00000000	    -35.58901729	     45.00000000	    -45.00000000	  -2777.86758650	   -452.28877407	    140.84031293	    140.07720470	   2897.75846552	     93.34933539	     -1.35429582	    -13.03911023
      4.55000000	     37.23111809	     16.82374988	     20.89687711	   -274.40518504	    825.48579003	      8.01955354	      2.46458164	     43.04353698	     44.54051881	     45.00000000	      6.84703046	   2406.42043582	  -3533.67889950	     19.08938601	   -179.99999979	   1093.08921282	   -151.78883268	     19.43176793	     12.62902222	      8.80095231	    -45.00000000	    -35.42897364	     45.00000000	    -45.00000000	  -2778.02780070	   -452.23291975	    140.69112346	    140.44201553	   2897.82348485	     93.11549895	     -1.39759991	    -13.05374625
      4.56000000	     37.23650023	     16.82390749	     20.90240440	   -273.51703265	    825.42884510	      7.92375951	      2.39378815	     43.01696285	     44.62683004	     45.00000000	      7.25747939	   2406.28195199	  -3533.59941818	     19.12557696	   -179.99999979	   1093.13539304	   -152.19625060	     19.38590916	     12.70760891	      8.76721502	    -45.00000000	    -35.48211951	     45.00000000	    -45.00000000	  -2778.13299994	   -452.22728250	    140.61351998	    140.87851887	   2897.83761915	     92.98395883	     -1.42330672	    -13.04049098
      4.57000000	     37.18711086	     16.79818962	     20.96178385	   -272.54865019	    825.41001069	      7.82902175	      2.29091551	     42.99638484	     44.72524026	     45.00000000	      7.47887336	   2406.19410590	  -3533.65831605	     19.12174310	   -179.99999979	   1093.14994053	   -152.49614160	     19.37596276	     12.81536846	      8.85502143	    -45.00000000	    -35.54122436	     45.00000000	    -45.00000000	  -2778.17173161	   -452.15601227	    140.52646843	    141.23321986	   2897.83872847	     92.95089326	     -1.45199178	    -13.04110349
      4.58000000	     37.18934631	     16.81327382	     20.99277762	   -271.49086992	    825.43187880	      7.73472080	      2.21797990	     42.96974157	     44.82008045	     45.00000000	      7.76761903	   2406.09290410	  -3533.61951751	     19.18822684	   -179.99999979	   1093.12046693	   -152.71401495	     19.36337417	     12.90252481	      8.89435695	    -45.00000000	    -35.58123612	     45.00000000	    -45.00000000	  -2778.24100516	   -452.11851752	    140.40841615	    141.62077060	   2897.92861966	     93.00436405	     -1.49271061	    -13.02082279
      4.59000000	     37.19074524	     16.80776992	     21.01919408	   -270.33671658	    825.49495844	      7.63947166	      2.19384208	     42.93711591	     44.97572489	     45.00000000	      8.14990820	   2405.93198968	  -3533.57063782	     19.24404112	   -179.99999979	   1093.10737327	   -152.86098844	     19.33716433	     12.97733262	      8.85492249	    -45.00000000	    -35.60630574	     45.00000000	    -45.00000000	  -2778.34444206	   -452.10060269	    140.30163170	    142.06354608	   2897.97036063	     93.15822745	     -1.51901427	    -12.98483075
      4.60000000	     37.05619406	     16.86830577	     21.24825556	   -269.08221680	    825.59815883	      7.54153633	      1.90049404	     42.95457714	     45.00000000	     45.00000000	      8.25964945	   2406.03115377	  -3533.65284239	     19.06707399	   -179.99999979	   1092.89882764	   -152.93819412	     19.40236160	     13.09053871	      9.10897916	    -45.00000000	    -35.65249828	     45.00000000	    -45.00000000	  -2778.25311465	   -451.96696178	    140.16142899	    142.45645644	   2898.04144378	     93.36823965	     -1.56563314	    -12.98026702
      4.61000000	     37.01874662	     17.00802727	     21.35751469	   -267.72967537	    825.73852699	      7.43946780	      1.82842263	     42.95197848	     45.00000000	     45.00000000	      8.53100883	   2406.00010733	  -3533.61008974	     19.01878745	   -179.99999979	   1092.76016493	   -152.92949289	     19.41667547	     13.16703896	      9.10019691	    -45.00000000	    -35.66672127	     45.00000000	    -45.00000000	  -2778.36730221	   -451.95144161	    139.95676336	    142.88002692	   2897.95645352	     93.66439915	     -1.56382963	    -12.92660975
      4.62000000	     37.05179597	     16.93524056	     21.30637185	   -266.27801994	    825.91248624	      7.33192749	      2.01533638	     42.87933044	     45.00000000	     45.00000000	      8.95420792	   2405.88751627	  -3533.71497216	     19.34046278	   -179.99999979	   1092.90110688	   -152.79425992	     19.34265064	     13.25716528	      8.91244707	    -45.00000000	    -35.84718323	     45.00000000	    -45.00000000	  -2778.55393849	   -451.94173804	    139.96607391	    143.26182165	   2898.16714132	     94.04603100	     -1.62780824	    -12.88685491
